<?xml version="1.0" encoding="UTF-8" standalone="no"?>
<!DOCTYPE svg PUBLIC "-//W3C//DTD SVG 1.1//EN"
 "http://www.w3.org/Graphics/SVG/1.1/DTD/svg11.dtd">
<!-- Generated by graphviz version 3.0.0 (0)
 -->
<!-- Pages: 1 -->
<svg width="1366pt" height="188pt"
 viewBox="0.00 0.00 1365.97 188.00" xmlns="http://www.w3.org/2000/svg" xmlns:xlink="http://www.w3.org/1999/xlink">
<g id="graph0" class="graph" transform="scale(1 1) rotate(0) translate(4 184)">
<polygon fill="white" stroke="transparent" points="-4,4 -4,-184 1361.97,-184 1361.97,4 -4,4"/>
<!-- Charlie choisi un dé -->
<g id="node1" class="node">
<title>Charlie choisi un dé</title>
<ellipse fill="none" stroke="black" cx="641.44" cy="-162" rx="102.88" ry="18"/>
<text text-anchor="middle" x="641.44" y="-158.3" font-family="Times,serif" font-size="14.00">Charlie choisi un dé</text>
</g>
<!-- Il choisi le premier dé -->
<g id="node2" class="node">
<title>Il choisi le premier dé</title>
<ellipse fill="none" stroke="black" cx="475.44" cy="-90" rx="112.38" ry="18"/>
<text text-anchor="middle" x="475.44" y="-86.3" font-family="Times,serif" font-size="14.00">Il choisi le premier dé</text>
</g>
<!-- Charlie choisi un dé&#45;&gt;Il choisi le premier dé -->
<g id="edge1" class="edge">
<title>Charlie choisi un dé&#45;&gt;Il choisi le premier dé</title>
<path fill="none" stroke="black" d="M603.77,-145.12C579.85,-135.03 548.68,-121.89 523.05,-111.08"/>
<polygon fill="black" stroke="black" points="524.1,-107.72 513.53,-107.06 521.38,-114.17 524.1,-107.72"/>
</g>
<!-- Il choisi le deuxième dé -->
<g id="node3" class="node">
<title>Il choisi le deuxième dé</title>
<ellipse fill="none" stroke="black" cx="807.44" cy="-90" rx="120.48" ry="18"/>
<text text-anchor="middle" x="807.44" y="-86.3" font-family="Times,serif" font-size="14.00">Il choisi le deuxième dé</text>
</g>
<!-- Charlie choisi un dé&#45;&gt;Il choisi le deuxième dé -->
<g id="edge2" class="edge">
<title>Charlie choisi un dé&#45;&gt;Il choisi le deuxième dé</title>
<path fill="none" stroke="black" d="M679.1,-145.12C702.94,-135.07 733.97,-121.98 759.55,-111.19"/>
<polygon fill="black" stroke="black" points="761.2,-114.3 769.05,-107.19 758.48,-107.85 761.2,-114.3"/>
</g>
<!-- Il obtient 3 avec le premier dé -->
<g id="node4" class="node">
<title>Il obtient 3 avec le premier dé</title>
<ellipse fill="none" stroke="black" cx="151.44" cy="-18" rx="151.37" ry="18"/>
<text text-anchor="middle" x="151.44" y="-14.3" font-family="Times,serif" font-size="14.00">Il obtient 3 avec le premier dé</text>
</g>
<!-- Il choisi le premier dé&#45;&gt;Il obtient 3 avec le premier dé -->
<g id="edge3" class="edge">
<title>Il choisi le premier dé&#45;&gt;Il obtient 3 avec le premier dé</title>
<path fill="none" stroke="black" d="M411.42,-75.17C359.58,-63.97 286.29,-48.13 230.73,-36.13"/>
<polygon fill="black" stroke="black" points="231.44,-32.7 220.92,-34.01 229.96,-39.55 231.44,-32.7"/>
</g>
<!-- Il n&#39;obtient pas 3 le premier dé -->
<g id="node5" class="node">
<title>Il n&#39;obtient pas 3 le premier dé</title>
<ellipse fill="none" stroke="black" cx="475.44" cy="-18" rx="154.87" ry="18"/>
<text text-anchor="middle" x="475.44" y="-14.3" font-family="Times,serif" font-size="14.00">Il n&#39;obtient pas 3 le premier dé</text>
</g>
<!-- Il choisi le premier dé&#45;&gt;Il n&#39;obtient pas 3 le premier dé -->
<g id="edge4" class="edge">
<title>Il choisi le premier dé&#45;&gt;Il n&#39;obtient pas 3 le premier dé</title>
<path fill="none" stroke="black" d="M475.44,-71.7C475.44,-63.98 475.44,-54.71 475.44,-46.11"/>
<polygon fill="black" stroke="black" points="478.94,-46.1 475.44,-36.1 471.94,-46.1 478.94,-46.1"/>
</g>
<!-- Il obtient 3 avec le deuxième dé -->
<g id="node6" class="node">
<title>Il obtient 3 avec le deuxième dé</title>
<ellipse fill="none" stroke="black" cx="807.44" cy="-18" rx="159.47" ry="18"/>
<text text-anchor="middle" x="807.44" y="-14.3" font-family="Times,serif" font-size="14.00">Il obtient 3 avec le deuxième dé</text>
</g>
<!-- Il choisi le deuxième dé&#45;&gt;Il obtient 3 avec le deuxième dé -->
<g id="edge5" class="edge">
<title>Il choisi le deuxième dé&#45;&gt;Il obtient 3 avec le deuxième dé</title>
<path fill="none" stroke="black" d="M807.44,-71.7C807.44,-63.98 807.44,-54.71 807.44,-46.11"/>
<polygon fill="black" stroke="black" points="810.94,-46.1 807.44,-36.1 803.94,-46.1 810.94,-46.1"/>
</g>
<!-- Il n&#39;obtient pas 3 avec le deuxième dé -->
<g id="node7" class="node">
<title>Il n&#39;obtient pas 3 avec le deuxième dé</title>
<ellipse fill="none" stroke="black" cx="1171.44" cy="-18" rx="186.57" ry="18"/>
<text text-anchor="middle" x="1171.44" y="-14.3" font-family="Times,serif" font-size="14.00">Il n&#39;obtient pas 3 avec le deuxième dé</text>
</g>
<!-- Il choisi le deuxième dé&#45;&gt;Il n&#39;obtient pas 3 avec le deuxième dé -->
<g id="edge6" class="edge">
<title>Il choisi le deuxième dé&#45;&gt;Il n&#39;obtient pas 3 avec le deuxième dé</title>
<path fill="none" stroke="black" d="M878.05,-75.42C936.24,-64.23 1019.11,-48.29 1081.94,-36.21"/>
<polygon fill="black" stroke="black" points="1082.68,-39.63 1091.84,-34.31 1081.36,-32.76 1082.68,-39.63"/>
</g>
</g>
</svg>
