<?xml version="1.0" encoding="UTF-8" standalone="no"?>
<!DOCTYPE svg PUBLIC "-//W3C//DTD SVG 1.1//EN"
 "http://www.w3.org/Graphics/SVG/1.1/DTD/svg11.dtd">
<!-- Generated by graphviz version 2.50.0 (0)
 -->
<!-- Title: G Pages: 1 -->
<svg width="302pt" height="196pt"
 viewBox="0.00 0.00 302.00 196.00" xmlns="http://www.w3.org/2000/svg" xmlns:xlink="http://www.w3.org/1999/xlink">
<g id="graph0" class="graph" transform="scale(1 1) rotate(0) translate(4 192)">
<title>G</title>
<polygon fill="white" stroke="transparent" points="-4,4 -4,-192 298,-192 298,4 -4,4"/>
<!-- premier vecteur -->
<g id="node1" class="node">
<title>premier vecteur</title>
<polygon fill="none" stroke="green" points="132,-188 0,-188 0,-152 132,-152 132,-188"/>
<text text-anchor="middle" x="66" y="-166.3" font-family="Times,serif" font-size="14.00">premier vecteur</text>
</g>
<!-- déterminant -->
<g id="node2" class="node">
<title>déterminant</title>
<polygon fill="grey" stroke="grey" points="217.74,-86.54 217.74,-101.46 174.54,-112 113.46,-112 70.26,-101.46 70.26,-86.54 113.46,-76 174.54,-76 217.74,-86.54"/>
<polygon fill="none" stroke="grey" points="221.73,-83.4 221.73,-104.6 175.02,-116 112.98,-116 66.27,-104.6 66.27,-83.4 112.98,-72 175.02,-72 221.73,-83.4"/>
<text text-anchor="middle" x="144" y="-90.3" font-family="Times,serif" font-size="14.00">déterminant</text>
</g>
<!-- premier vecteur&#45;&gt;déterminant -->
<g id="edge1" class="edge">
<title>premier vecteur&#45;&gt;déterminant</title>
<path fill="none" stroke="green" d="M84.09,-151.84C93.06,-143.33 104.12,-132.84 114.28,-123.2"/>
<polygon fill="green" stroke="green" points="116.99,-125.45 121.83,-116.03 112.17,-120.38 116.99,-125.45"/>
</g>
<!-- nombre réel -->
<g id="node4" class="node">
<title>nombre réel</title>
<ellipse fill="none" stroke="red" cx="144" cy="-18" rx="67.69" ry="18"/>
<text text-anchor="middle" x="144" y="-14.3" font-family="Times,serif" font-size="14.00">nombre réel</text>
</g>
<!-- déterminant&#45;&gt;nombre réel -->
<g id="edge3" class="edge">
<title>déterminant&#45;&gt;nombre réel</title>
<path fill="none" stroke="red" d="M144,-71.99C144,-64.06 144,-54.91 144,-46.48"/>
<polygon fill="red" stroke="red" points="147.5,-46.31 144,-36.31 140.5,-46.31 147.5,-46.31"/>
</g>
<!-- deuxième vecteur -->
<g id="node3" class="node">
<title>deuxième vecteur</title>
<polygon fill="none" stroke="green" points="294,-188 150,-188 150,-152 294,-152 294,-188"/>
<text text-anchor="middle" x="222" y="-166.3" font-family="Times,serif" font-size="14.00">deuxième vecteur</text>
</g>
<!-- deuxième vecteur&#45;&gt;déterminant -->
<g id="edge2" class="edge">
<title>deuxième vecteur&#45;&gt;déterminant</title>
<path fill="none" stroke="green" d="M203.91,-151.84C194.94,-143.33 183.88,-132.84 173.72,-123.2"/>
<polygon fill="green" stroke="green" points="175.83,-120.38 166.17,-116.03 171.01,-125.45 175.83,-120.38"/>
</g>
</g>
</svg>
