<?xml version="1.0" encoding="UTF-8" standalone="no"?>
<!DOCTYPE svg PUBLIC "-//W3C//DTD SVG 1.1//EN"
 "http://www.w3.org/Graphics/SVG/1.1/DTD/svg11.dtd">
<!-- Generated by graphviz version 2.50.0 (0)
 -->
<!-- Title: G Pages: 1 -->
<svg width="360pt" height="351pt"
 viewBox="0.00 0.00 360.00 351.45" xmlns="http://www.w3.org/2000/svg" xmlns:xlink="http://www.w3.org/1999/xlink">
<g id="graph0" class="graph" transform="scale(0.64 0.64) rotate(0) translate(4 544)">
<title>G</title>
<polygon fill="white" stroke="transparent" points="-4,4 -4,-544 557.34,-544 557.34,4 -4,4"/>
<!-- geometrie -->
<g id="node1" class="node">
<title>geometrie</title>
<ellipse fill="none" stroke="black" cx="394.64" cy="-522" rx="57.69" ry="18"/>
<text text-anchor="middle" x="394.64" y="-518.3" font-family="Times,serif" font-size="14.00">geometrie</text>
</g>
<!-- vecteur -->
<g id="node2" class="node">
<title>vecteur</title>
<ellipse fill="none" stroke="black" cx="298.64" cy="-450" rx="46.29" ry="18"/>
<text text-anchor="middle" x="298.64" y="-446.3" font-family="Times,serif" font-size="14.00">vecteur</text>
</g>
<!-- geometrie&#45;&gt;vecteur -->
<g id="edge1" class="edge">
<title>geometrie&#45;&gt;vecteur</title>
<path fill="none" stroke="black" d="M372.86,-505.12C359.45,-495.34 342.1,-482.69 327.54,-472.08"/>
<polygon fill="black" stroke="black" points="329.49,-469.17 319.35,-466.1 325.37,-474.82 329.49,-469.17"/>
</g>
<!-- représentation graphique -->
<g id="node4" class="node">
<title>représentation graphique</title>
<ellipse fill="none" stroke="black" cx="392.64" cy="-90" rx="129.98" ry="18"/>
<text text-anchor="middle" x="392.64" y="-86.3" font-family="Times,serif" font-size="14.00">représentation graphique</text>
</g>
<!-- geometrie&#45;&gt;représentation graphique -->
<g id="edge3" class="edge">
<title>geometrie&#45;&gt;représentation graphique</title>
<path fill="none" stroke="black" d="M394.64,-503.95C394.64,-477.29 394.64,-424.11 394.64,-379 394.64,-379 394.64,-379 394.64,-233 394.64,-192.99 393.84,-146.65 393.25,-118.08"/>
<polygon fill="black" stroke="black" points="396.75,-117.97 393.04,-108.05 389.75,-118.12 396.75,-117.97"/>
</g>
<!-- coefficient directeur -->
<g id="node9" class="node">
<title>coefficient directeur</title>
<ellipse fill="none" stroke="black" cx="104.64" cy="-378" rx="104.78" ry="18"/>
<text text-anchor="middle" x="104.64" y="-374.3" font-family="Times,serif" font-size="14.00">coefficient directeur</text>
</g>
<!-- vecteur&#45;&gt;coefficient directeur -->
<g id="edge8" class="edge">
<title>vecteur&#45;&gt;coefficient directeur</title>
<path fill="none" stroke="black" d="M265.73,-437.13C235.99,-426.39 191.69,-410.41 157.08,-397.92"/>
<polygon fill="black" stroke="black" points="158.18,-394.6 147.59,-394.5 155.81,-401.18 158.18,-394.6"/>
</g>
<!-- fonction -->
<g id="node3" class="node">
<title>fonction</title>
<ellipse fill="none" stroke="black" cx="164.64" cy="-162" rx="48.19" ry="18"/>
<text text-anchor="middle" x="164.64" y="-158.3" font-family="Times,serif" font-size="14.00">fonction</text>
</g>
<!-- fonction&#45;&gt;représentation graphique -->
<g id="edge2" class="edge">
<title>fonction&#45;&gt;représentation graphique</title>
<path fill="none" stroke="black" d="M200.52,-149.99C235.69,-139.19 290,-122.51 331.91,-109.65"/>
<polygon fill="black" stroke="black" points="333.2,-112.91 341.73,-106.63 331.14,-106.22 333.2,-112.91"/>
</g>
<!-- fonction affine -->
<g id="node5" class="node">
<title>fonction affine</title>
<ellipse fill="none" stroke="black" cx="167.64" cy="-90" rx="77.19" ry="18"/>
<text text-anchor="middle" x="167.64" y="-86.3" font-family="Times,serif" font-size="14.00">fonction affine</text>
</g>
<!-- fonction&#45;&gt;fonction affine -->
<g id="edge4" class="edge">
<title>fonction&#45;&gt;fonction affine</title>
<path fill="none" stroke="black" d="M165.38,-143.7C165.71,-135.98 166.11,-126.71 166.48,-118.11"/>
<polygon fill="black" stroke="black" points="169.98,-118.25 166.91,-108.1 162.98,-117.95 169.98,-118.25"/>
</g>
<!-- droite -->
<g id="node6" class="node">
<title>droite</title>
<ellipse fill="none" stroke="black" cx="110.64" cy="-18" rx="38.19" ry="18"/>
<text text-anchor="middle" x="110.64" y="-14.3" font-family="Times,serif" font-size="14.00">droite</text>
</g>
<!-- fonction affine&#45;&gt;droite -->
<g id="edge5" class="edge">
<title>fonction affine&#45;&gt;droite</title>
<path fill="none" stroke="black" d="M153.84,-72.05C146.81,-63.42 138.13,-52.76 130.4,-43.27"/>
<polygon fill="black" stroke="black" points="132.95,-40.85 123.92,-35.31 127.52,-45.27 132.95,-40.85"/>
</g>
<!-- droite&#45;&gt;geometrie -->
<g id="edge6" class="edge">
<title>droite&#45;&gt;geometrie</title>
<path fill="none" stroke="black" d="M149.19,-18.38C242.39,-17.71 476.36,-21.24 531.64,-72 561.43,-99.36 550.64,-120.55 550.64,-161 550.64,-379 550.64,-379 550.64,-379 550.64,-439.82 485,-481.48 438.88,-503.25"/>
<polygon fill="black" stroke="black" points="437.29,-500.13 429.65,-507.47 440.2,-506.5 437.29,-500.13"/>
</g>
<!-- droite&#45;&gt;coefficient directeur -->
<g id="edge10" class="edge">
<title>droite&#45;&gt;coefficient directeur</title>
<path fill="none" stroke="black" d="M104.65,-36.04C91.13,-61.84 62.64,-112.92 62.64,-161 62.64,-235 62.64,-235 62.64,-235 62.64,-277.23 82.86,-322.58 95.59,-350.38"/>
<polygon fill="black" stroke="black" points="92.55,-352.15 99.89,-359.79 98.92,-349.24 92.55,-352.15"/>
</g>
<!-- fraction -->
<g id="node7" class="node">
<title>fraction</title>
<ellipse fill="none" stroke="black" cx="152.64" cy="-306" rx="46.59" ry="18"/>
<text text-anchor="middle" x="152.64" y="-302.3" font-family="Times,serif" font-size="14.00">fraction</text>
</g>
<!-- calcul -->
<g id="node8" class="node">
<title>calcul</title>
<ellipse fill="none" stroke="black" cx="164.64" cy="-234" rx="37.89" ry="18"/>
<text text-anchor="middle" x="164.64" y="-230.3" font-family="Times,serif" font-size="14.00">calcul</text>
</g>
<!-- fraction&#45;&gt;calcul -->
<g id="edge7" class="edge">
<title>fraction&#45;&gt;calcul</title>
<path fill="none" stroke="black" d="M155.61,-287.7C156.93,-279.98 158.52,-270.71 159.99,-262.11"/>
<polygon fill="black" stroke="black" points="163.47,-262.55 161.71,-252.1 156.57,-261.37 163.47,-262.55"/>
</g>
<!-- calcul&#45;&gt;fonction -->
<g id="edge14" class="edge">
<title>calcul&#45;&gt;fonction</title>
<path fill="none" stroke="black" d="M164.64,-215.7C164.64,-207.98 164.64,-198.71 164.64,-190.11"/>
<polygon fill="black" stroke="black" points="168.14,-190.1 164.64,-180.1 161.14,-190.1 168.14,-190.1"/>
</g>
<!-- determinant -->
<g id="node10" class="node">
<title>determinant</title>
<ellipse fill="none" stroke="black" cx="298.64" cy="-162" rx="68.49" ry="18"/>
<text text-anchor="middle" x="298.64" y="-158.3" font-family="Times,serif" font-size="14.00">determinant</text>
</g>
<!-- calcul&#45;&gt;determinant -->
<g id="edge13" class="edge">
<title>calcul&#45;&gt;determinant</title>
<path fill="none" stroke="black" d="M189.22,-220.16C209.01,-209.82 237.18,-195.1 259.99,-183.19"/>
<polygon fill="black" stroke="black" points="261.83,-186.18 269.07,-178.45 258.59,-179.97 261.83,-186.18"/>
</g>
<!-- coefficient directeur&#45;&gt;droite -->
<g id="edge9" class="edge">
<title>coefficient directeur&#45;&gt;droite</title>
<path fill="none" stroke="black" d="M88.25,-359.79C70.14,-333.77 44.64,-282.41 44.64,-235 44.64,-235 44.64,-235 44.64,-161 44.64,-116.65 68.88,-69.76 88.24,-42.5"/>
<polygon fill="black" stroke="black" points="91.13,-44.47 94.32,-34.37 85.53,-40.28 91.13,-44.47"/>
</g>
<!-- coefficient directeur&#45;&gt;fraction -->
<g id="edge11" class="edge">
<title>coefficient directeur&#45;&gt;fraction</title>
<path fill="none" stroke="black" d="M116.26,-360.05C121.98,-351.71 128.99,-341.49 135.33,-332.25"/>
<polygon fill="black" stroke="black" points="138.36,-334.02 141.13,-323.79 132.59,-330.06 138.36,-334.02"/>
</g>
<!-- determinant&#45;&gt;vecteur -->
<g id="edge12" class="edge">
<title>determinant&#45;&gt;vecteur</title>
<path fill="none" stroke="black" d="M298.64,-180.31C298.64,-228.31 298.64,-363.44 298.64,-421.7"/>
<polygon fill="black" stroke="black" points="295.14,-421.97 298.64,-431.97 302.14,-421.97 295.14,-421.97"/>
</g>
</g>
</svg>
